<svg width="33" height="30" viewBox="0 0 33 30" fill="none" xmlns="http://www.w3.org/2000/svg">
<path d="M29.8146 11.4902C29.8146 11.0273 29.4995 10.7812 28.9208 10.7812H28.6401V12.2402H28.9094C29.4995 12.2402 29.8146 11.9824 29.8146 11.4902ZM30.25 1.875H2.75C1.23177 1.875 0 3.13477 0 4.6875V25.3125C0 26.8652 1.23177 28.125 2.75 28.125H30.25C31.7682 28.125 33 26.8652 33 25.3125V4.6875C33 3.13477 31.7682 1.875 30.25 1.875ZM27.7234 10.0137C29.0182 10.0137 30.7542 9.77344 30.7542 11.4434C30.7542 12.1816 30.376 12.6562 29.6828 12.8027L31.1609 14.8184H30.038L28.7661 12.8965H28.6401V14.8184H27.7234V10.0137ZM24.5208 10.0195H27.1161V10.8398H25.4375V11.9062H27.0589V12.7148H25.4375V14.0156H27.1161V14.8242H24.5208V10.0195ZM20.5849 10.0195L21.8396 13.2539L23.1115 10.0195H24.1141L22.0802 14.9531H21.5875L19.5823 10.0195H20.5849ZM17.3823 9.84375C18.7974 9.84375 19.9375 11.0156 19.9375 12.457C19.9375 13.9043 18.7917 15.0703 17.3823 15.0703C15.9672 15.0703 14.8271 13.8984 14.8271 12.457C14.8271 11.0098 15.9729 9.84375 17.3823 9.84375ZM14.5578 10.2012V11.3145C13.4063 10.1367 11.8766 11.0391 11.8766 12.4277C11.8766 13.8926 13.4521 14.6836 14.5578 13.5527V14.666C12.8563 15.5039 10.9313 14.332 10.9313 12.4277C10.9313 10.5996 12.8276 9.32227 14.5578 10.2012ZM8.98906 14.0859C9.64219 14.0859 10.2724 13.1895 8.8 12.6562C7.94063 12.334 7.64271 11.9883 7.64271 11.3262C7.64271 9.9668 9.39583 9.48633 10.4901 10.4883L10.0089 11.1211C9.41302 10.4414 8.58229 10.7578 8.58229 11.2676C8.58229 11.5254 8.73698 11.6719 9.28698 11.8711C10.3297 12.2578 10.6391 12.6035 10.6391 13.3711C10.6391 15.0996 8.41615 15.5625 7.39635 14.0332L7.98646 13.4531C8.19844 13.8691 8.55365 14.0859 8.98906 14.0859ZM3.17396 14.8242H1.83333V10.0195H3.17396C4.66927 10.0195 5.70052 11.0156 5.70052 12.4277C5.70052 13.5117 4.94427 14.8242 3.17396 14.8242ZM7.04115 14.8242H6.12448V10.0195H7.04115V14.8242ZM31.1667 25.3711C31.1667 25.8516 30.7771 26.25 30.3073 26.25H7.33333C18.1958 24.1641 29.2589 18.0938 31.1667 16.875V25.3711ZM4.24531 11.2266C3.9474 10.9395 3.58073 10.8398 2.99063 10.8398H2.75V14.0156H2.99063C3.58073 14.0156 3.96458 13.8984 4.24531 13.6406C4.57188 13.3359 4.75521 12.8906 4.75521 12.4277C4.75521 11.9648 4.57188 11.5195 4.24531 11.2266Z" fill="white"/>
</svg>
