<svg width="33" height="30" viewBox="0 0 33 30" fill="none" xmlns="http://www.w3.org/2000/svg">
<path d="M27.6661 24.041C27.6661 24.4395 27.4026 24.7266 27.0245 24.7266C26.6349 24.7266 26.3828 24.4219 26.3828 24.041C26.3828 23.6602 26.6349 23.3555 27.0245 23.3555C27.4026 23.3555 27.6661 23.6602 27.6661 24.041ZM9.8599 23.3555C9.45313 23.3555 9.21823 23.6602 9.21823 24.041C9.21823 24.4219 9.45313 24.7266 9.8599 24.7266C10.2323 24.7266 10.4844 24.4395 10.4844 24.041C10.4786 23.6602 10.2323 23.3555 9.8599 23.3555ZM16.5917 23.3379C16.2823 23.3379 16.0932 23.543 16.0474 23.8477H17.1417C17.0901 23.5137 16.8896 23.3379 16.5917 23.3379ZM22.7677 23.3555C22.3781 23.3555 22.1432 23.6602 22.1432 24.041C22.1432 24.4219 22.3781 24.7266 22.7677 24.7266C23.1573 24.7266 23.4094 24.4395 23.4094 24.041C23.4094 23.6602 23.1573 23.3555 22.7677 23.3555ZM28.8349 24.8848C28.8349 24.9023 28.8521 24.9141 28.8521 24.9492C28.8521 24.9668 28.8349 24.9785 28.8349 25.0137C28.8177 25.0312 28.8177 25.043 28.8062 25.0605C28.7891 25.0781 28.7776 25.0898 28.7432 25.0898C28.726 25.1074 28.7146 25.1074 28.6802 25.1074C28.663 25.1074 28.6516 25.1074 28.6172 25.0898C28.6 25.0898 28.5885 25.0723 28.5714 25.0605C28.5542 25.043 28.5427 25.0312 28.5427 25.0137C28.5255 24.9844 28.5255 24.9668 28.5255 24.9492C28.5255 24.9199 28.5255 24.9023 28.5427 24.8848C28.5427 24.8555 28.5599 24.8379 28.5714 24.8203C28.5885 24.8027 28.6 24.8027 28.6172 24.791C28.6458 24.7734 28.663 24.7734 28.6802 24.7734C28.7089 24.7734 28.726 24.7734 28.7432 24.791C28.7719 24.8086 28.7891 24.8086 28.8062 24.8203C28.8234 24.832 28.8177 24.8555 28.8349 24.8848ZM28.7089 24.9668C28.7375 24.9668 28.7375 24.9492 28.7547 24.9492C28.7719 24.9316 28.7719 24.9199 28.7719 24.9023C28.7719 24.8848 28.7719 24.873 28.7547 24.8555C28.7375 24.8555 28.726 24.8379 28.6917 24.8379H28.6V25.043H28.6458V24.9609H28.663L28.726 25.043H28.7719L28.7089 24.9668ZM33 4.74609V25.3711C33 26.9238 31.7682 28.1836 30.25 28.1836H2.75C1.23177 28.1836 0 26.9238 0 25.3711V4.74609C0 3.19336 1.23177 1.93359 2.75 1.93359H30.25C31.7682 1.93359 33 3.19336 33 4.74609ZM3.66667 12.9258C3.66667 17.4082 7.22448 21.041 11.6016 21.041C13.1599 21.041 14.6896 20.5605 15.9844 19.6875C11.8078 16.2129 11.8365 9.65625 15.9844 6.18164C14.6896 5.30273 13.1599 4.82812 11.6016 4.82812C7.22448 4.82227 3.66667 8.46094 3.66667 12.9258ZM16.5 19.3008C20.5391 16.0781 20.5219 9.79688 16.5 6.55664C12.4781 9.79688 12.4609 16.084 16.5 19.3008ZM8.3474 23.7715C8.3474 23.2617 8.02083 22.9277 7.50521 22.9102C7.24167 22.9102 6.96094 22.9922 6.77187 23.291C6.63438 23.0508 6.39948 22.9102 6.07292 22.9102C5.85521 22.9102 5.6375 22.9922 5.46563 23.2266V22.9688H4.99583V25.1191H5.46563C5.46563 24.0117 5.3224 23.3496 5.98125 23.3496C6.56563 23.3496 6.45104 23.9473 6.45104 25.1191H6.90365C6.90365 24.0469 6.76042 23.3496 7.41927 23.3496C8.00365 23.3496 7.88906 23.9355 7.88906 25.1191H8.35885V23.7715H8.3474ZM10.9198 22.9688H10.4672V23.2266C10.3125 23.0332 10.0948 22.9102 9.79688 22.9102C9.20677 22.9102 8.75417 23.3906 8.75417 24.041C8.75417 24.6973 9.20677 25.1719 9.79688 25.1719C10.0948 25.1719 10.3125 25.0605 10.4672 24.8555V25.125H10.9198V22.9688ZM13.2401 24.4688C13.2401 23.5898 11.9281 23.9883 11.9281 23.5781C11.9281 23.2441 12.6099 23.2969 12.988 23.5137L13.1771 23.1328C12.6385 22.7754 11.4469 22.7812 11.4469 23.6133C11.4469 24.4512 12.7589 24.0996 12.7589 24.4922C12.7589 24.8613 11.9854 24.832 11.5729 24.5391L11.3724 24.9082C12.0141 25.3535 13.2401 25.2598 13.2401 24.4688ZM15.2682 25.0137L15.1422 24.6152C14.9245 24.7383 14.4432 24.873 14.4432 24.375V23.4023H15.1938V22.9688H14.4432V22.3125H13.9734V22.9688H13.538V23.3965H13.9734V24.375C13.9734 25.4062 14.9646 25.2188 15.2682 25.0137ZM16.0302 24.2285H17.6057C17.6057 23.2793 17.1818 22.9043 16.6089 22.9043C16.0016 22.9043 15.5661 23.3672 15.5661 24.0352C15.5661 25.2363 16.8609 25.4355 17.5026 24.8672L17.2849 24.5156C16.838 24.8906 16.162 24.8555 16.0302 24.2285ZM19.4161 22.9688C19.1526 22.8516 18.7516 22.8633 18.5453 23.2266V22.9688H18.0755V25.1191H18.5453V23.9062C18.5453 23.2266 19.0896 23.3145 19.2786 23.4141L19.4161 22.9688ZM20.0234 24.041C20.0234 23.373 20.688 23.1562 21.2094 23.5488L21.4271 23.168C20.7625 22.6348 19.5536 22.9277 19.5536 24.0469C19.5536 25.207 20.837 25.4414 21.4271 24.9258L21.2094 24.5449C20.6823 24.9258 20.0234 24.6973 20.0234 24.041ZM23.8448 22.9688H23.375V23.2266C22.8995 22.582 21.662 22.9453 21.662 24.041C21.662 25.166 22.9453 25.4883 23.375 24.8555V25.125H23.8448V22.9688ZM25.7755 22.9688C25.638 22.8984 25.1453 22.7988 24.9047 23.2266V22.9688H24.4521V25.1191H24.9047V23.9062C24.9047 23.2617 25.4203 23.3027 25.638 23.4141L25.7755 22.9688ZM28.0844 22.0957H27.6318V23.2266C27.162 22.5879 25.9188 22.9277 25.9188 24.041C25.9188 25.1777 27.2078 25.4824 27.6318 24.8555V25.125H28.0844V22.0957ZM28.5198 17.6953V17.9648H28.5656V17.6953H28.6745V17.6484H28.4109V17.6953H28.5198ZM28.8979 24.9492C28.8979 24.9199 28.8979 24.8848 28.8807 24.8555C28.8635 24.8379 28.8521 24.8086 28.8349 24.791C28.8177 24.7734 28.7891 24.7617 28.7719 24.7441C28.7432 24.7441 28.7089 24.7266 28.6802 24.7266C28.663 24.7266 28.6344 24.7441 28.6 24.7441C28.5714 24.7617 28.5542 24.7734 28.537 24.791C28.5083 24.8086 28.4911 24.8379 28.4911 24.8555C28.474 24.8848 28.474 24.9199 28.474 24.9492C28.474 24.9668 28.474 24.9961 28.4911 25.0312C28.4911 25.0488 28.5083 25.0781 28.537 25.0957C28.5542 25.1133 28.5656 25.125 28.6 25.1426C28.6286 25.1602 28.663 25.1602 28.6802 25.1602C28.7089 25.1602 28.7432 25.1602 28.7719 25.1426C28.7891 25.125 28.8177 25.1133 28.8349 25.0957C28.8521 25.0781 28.8635 25.0488 28.8807 25.0312C28.8979 24.9961 28.8979 24.9668 28.8979 24.9492ZM29.0813 17.6426H29.001L28.9094 17.8477L28.8177 17.6426H28.7375V17.959H28.7833V17.7188L28.875 17.9238H28.938L29.0182 17.7188V17.959H29.0813V17.6426ZM29.3333 12.9258C29.3333 8.46094 25.7755 4.82227 21.3984 4.82227C19.8401 4.82227 18.3104 5.30273 17.0156 6.17578C21.1464 9.65039 21.2094 16.2246 17.0156 19.6816C18.3104 20.5605 19.8516 21.0352 21.3984 21.0352C25.7755 21.041 29.3333 17.4082 29.3333 12.9258Z" fill="white"/>
</svg>
