<?xml version="1.0" standalone="no"?>
<!DOCTYPE svg PUBLIC "-//W3C//DTD SVG 20010904//EN"
 "http://www.w3.org/TR/2001/REC-SVG-20010904/DTD/svg10.dtd">
<svg version="1.0" xmlns="http://www.w3.org/2000/svg"
 width="256.000000pt" height="256.000000pt" viewBox="0 0 256.000000 256.000000"
 preserveAspectRatio="xMidYMid meet">

<g transform="translate(0.000000,256.000000) scale(0.100000,-0.100000)"
fill="#000000" stroke="none">
<path d="M683 1908 c-33 -16 -48 -61 -33 -98 7 -17 21 -35 31 -40 11 -6 247
-10 602 -10 l585 0 27 32 c31 37 28 71 -11 106 l-25 22 -577 -1 c-382 0 -584
-4 -599 -11z"/>
<path d="M683 1428 c-33 -16 -48 -61 -33 -98 7 -17 21 -35 31 -40 28 -16 1180
-13 1200 3 45 34 46 92 2 127 -25 19 -42 20 -602 19 -382 0 -583 -4 -598 -11z"/>
<path d="M683 948 c-33 -16 -48 -61 -33 -98 7 -17 21 -35 31 -40 28 -16 1180
-13 1200 3 45 34 46 92 2 127 -25 19 -42 20 -602 19 -382 0 -583 -4 -598 -11z"/>
</g>
</svg>
