<svg width="33" height="30" viewBox="0 0 33 30" fill="none" xmlns="http://www.w3.org/2000/svg">
<path d="M10.6734 15.1289C10.6734 15.8438 10.1177 16.3887 9.41302 16.3887C8.88594 16.3887 8.49635 16.084 8.49635 15.5098C8.49635 14.7949 9.04063 14.2207 9.73958 14.2207C10.2724 14.2207 10.6734 14.5547 10.6734 15.1289ZM4.61198 12.2871H4.34271C4.25677 12.2871 4.17083 12.3457 4.15938 12.4453L3.91302 14.0098L4.38281 13.9922C5.01302 13.9922 5.5 13.9043 5.61458 13.1602C5.74635 12.375 5.25938 12.2871 4.61198 12.2871ZM20.8828 12.2871H20.625C20.5219 12.2871 20.4531 12.3457 20.4417 12.4453L20.201 14.0098L20.6594 13.9922C21.4042 13.9922 21.9198 13.8164 21.9198 12.9375C21.9141 12.3164 21.3698 12.2871 20.8828 12.2871ZM33 4.6875V25.3125C33 26.8652 31.7682 28.125 30.25 28.125H2.75C1.23177 28.125 0 26.8652 0 25.3125V4.6875C0 3.13477 1.23177 1.875 2.75 1.875H30.25C31.7682 1.875 33 3.13477 33 4.6875ZM7.35052 12.6211C7.35052 11.3906 6.4224 10.9805 5.3625 10.9805H3.07083C2.9276 10.9805 2.78438 11.0977 2.77292 11.2559L1.83333 17.2383C1.81615 17.3555 1.90208 17.4727 2.01667 17.4727H3.10521C3.2599 17.4727 3.40313 17.3027 3.42031 17.1387L3.67812 15.5801C3.73542 15.1582 4.43437 15.3047 4.70937 15.3047C6.34792 15.3047 7.35052 14.3086 7.35052 12.6211ZM12.1745 13.1367H11.0859C10.8682 13.1367 10.8568 13.459 10.8453 13.6172C10.513 13.1191 10.0318 13.0312 9.4875 13.0312C8.08385 13.0312 7.0125 14.291 7.0125 15.6797C7.0125 16.8223 7.71146 17.5664 8.82865 17.5664C9.34427 17.5664 9.98594 17.2793 10.3469 16.8691C10.3182 16.957 10.2896 17.1445 10.2896 17.2324C10.2896 17.3672 10.3469 17.4668 10.4729 17.4668H11.4583C11.613 17.4668 11.7448 17.2969 11.7734 17.1328L12.3578 13.3652C12.375 13.2539 12.2891 13.1367 12.1745 13.1367ZM14.4948 18.873L18.1443 13.4473C18.1729 13.418 18.1729 13.3887 18.1729 13.3477C18.1729 13.248 18.087 13.1426 17.9896 13.1426H16.8896C16.7922 13.1426 16.6891 13.2012 16.6318 13.2891L15.1135 15.5742L14.4833 13.377C14.4375 13.248 14.3115 13.1426 14.1682 13.1426H13.0969C12.9995 13.1426 12.9135 13.248 12.9135 13.3477C12.9135 13.418 14.0307 16.6758 14.1281 16.9863C13.9734 17.209 12.9536 18.6621 12.9536 18.8379C12.9536 18.9434 13.0396 19.0254 13.137 19.0254H14.237C14.3401 19.0195 14.4375 18.9609 14.4948 18.873ZM23.6214 12.6211C23.6214 11.3906 22.6932 10.9805 21.6333 10.9805H19.3589C19.2042 10.9805 19.0609 11.0977 19.0438 11.2559L18.1156 17.2324C18.1042 17.3496 18.1901 17.4668 18.299 17.4668H19.4734C19.588 17.4668 19.674 17.3789 19.7026 17.2793L19.9604 15.5801C20.0177 15.1582 20.7167 15.3047 20.9917 15.3047C22.6187 15.3047 23.6214 14.3086 23.6214 12.6211ZM28.4453 13.1367H27.3568C27.1391 13.1367 27.1276 13.459 27.1104 13.6172C26.7953 13.1191 26.3083 13.0312 25.7526 13.0312C24.349 13.0312 23.2776 14.291 23.2776 15.6797C23.2776 16.8223 23.9766 17.5664 25.0938 17.5664C25.6266 17.5664 26.2682 17.2793 26.612 16.8691C26.5948 16.957 26.5547 17.1445 26.5547 17.2324C26.5547 17.3672 26.612 17.4668 26.738 17.4668H27.7292C27.8839 17.4668 28.0156 17.2969 28.0443 17.1328L28.6286 13.3652C28.6458 13.2539 28.5599 13.1367 28.4453 13.1367ZM31.1667 11.1855C31.1667 11.0684 31.0807 10.9805 30.9833 10.9805H29.9234C29.8375 10.9805 29.7516 11.0508 29.7401 11.1387L28.812 17.2324L28.7948 17.2617C28.7948 17.3672 28.8807 17.4668 28.9953 17.4668H29.9406C30.0839 17.4668 30.2271 17.2969 30.2385 17.1328L31.1667 11.2031V11.1855ZM26.0104 14.2207C25.3115 14.2207 24.7672 14.7891 24.7672 15.5098C24.7672 16.0781 25.1682 16.3887 25.6953 16.3887C26.3828 16.3887 26.9385 15.8496 26.9385 15.1289C26.9443 14.5547 26.5432 14.2207 26.0104 14.2207Z" fill="white"/>
</svg>
