<svg width="33" height="28" viewBox="0 0 33 28" fill="none" xmlns="http://www.w3.org/2000/svg">
<path d="M26.9328 12.5527C26.9328 12.5527 27.3682 14.7324 27.4656 15.1895H25.5521C25.7411 14.668 26.4688 12.6406 26.4688 12.6406C26.4573 12.6582 26.6578 12.1074 26.7724 11.7676L26.9328 12.5527ZM33 3.6875V24.3125C33 25.8652 31.7682 27.125 30.25 27.125H2.75C1.23177 27.125 0 25.8652 0 24.3125V3.6875C0 2.13477 1.23177 0.875 2.75 0.875H30.25C31.7682 0.875 33 2.13477 33 3.6875ZM8.73698 18.4062L12.3578 9.3125H9.92292L7.67135 15.5234L7.425 14.2637L6.62292 10.0801C6.49115 9.5 6.08438 9.33594 5.58021 9.3125H1.87344L1.83333 9.49414C2.73854 9.72852 3.54635 10.0684 4.25104 10.4961L6.30208 18.4062H8.73698ZM14.1453 18.418L15.5891 9.3125H13.2859L11.8479 18.418H14.1453ZM22.1604 15.4414C22.1719 14.4043 21.5531 13.6133 20.2297 12.9629C19.4219 12.5469 18.9292 12.2656 18.9292 11.8379C18.9406 11.4512 19.3474 11.0527 20.2526 11.0527C21.0031 11.0352 21.5531 11.2168 21.9656 11.3984L22.1719 11.498L22.487 9.5293C22.0344 9.34766 21.3125 9.14258 20.4245 9.14258C18.15 9.14258 16.5516 10.3848 16.5401 12.1543C16.5229 13.4609 17.6859 14.1875 18.5568 14.627C19.4448 15.0723 19.7484 15.3652 19.7484 15.7578C19.737 16.3672 19.0266 16.6484 18.3677 16.6484C17.451 16.6484 16.9583 16.502 16.2078 16.1621L15.9042 16.0156L15.5833 18.0605C16.1219 18.3125 17.1187 18.5352 18.15 18.5469C20.5677 18.5527 22.1432 17.3281 22.1604 15.4414ZM30.25 18.418L28.3938 9.3125H26.612C26.062 9.3125 25.6438 9.47656 25.4089 10.0684L21.9885 18.418H24.4062C24.4062 18.418 24.8016 17.293 24.8875 17.0527H27.8438C27.9125 17.375 28.1187 18.418 28.1187 18.418H30.25Z" fill="white"/>
</svg>
